<svg version="1.1" xmlns="http://www.w3.org/2000/svg" xmlns:xlink="http://www.w3.org/1999/xlink" width="153.25" height="153.25" viewBox="0,0,153.25,153.25"><g transform="translate(-163.375,-58.375)"><g data-paper-data="{&quot;isPaintingLayer&quot;:true}" fill-rule="nonzero" stroke="none" stroke-linecap="butt" stroke-linejoin="miter" stroke-miterlimit="10" stroke-dasharray="" stroke-dashoffset="0" style="mix-blend-mode: normal"><path d="M163.375,135c0,-42.31882 34.30618,-76.625 76.625,-76.625c42.31882,0 76.625,34.30618 76.625,76.625c0,42.31882 -34.30618,76.625 -76.625,76.625c-42.31882,0 -76.625,-34.30618 -76.625,-76.625z" fill="#019115" stroke-width="0"/><path d="M286.23305,116.50678v36.98644c0,5.10008 -4.14653,9.24661 -9.24661,9.24661h-17.42408c-3.49637,0 -6.70379,-1.97935 -8.26416,-5.11453l-4.62331,-9.24661c-1.27141,-2.52837 -3.85757,-4.13208 -6.68934,-4.13208c-2.83177,0 -5.41794,1.60371 -6.68934,4.13208l-4.62331,9.24661c-1.56037,3.13518 -4.76778,5.11453 -8.26416,5.11453h-17.39519c-5.10008,0 -9.24661,-4.14653 -9.24661,-9.24661v-36.98644c0,-5.10008 4.14653,-9.24661 9.24661,-9.24661h73.97289c5.10008,0 9.24661,4.14653 9.24661,9.24661zM216.88347,123.44174c-5.10008,0 -9.24661,4.14653 -9.24661,9.24661c0,5.10008 4.14653,9.24661 9.24661,9.24661c5.10008,0 9.24661,-4.14653 9.24661,-9.24661c0,-5.10008 -4.14653,-9.24661 -9.24661,-9.24661zM272.36314,132.68835c0,-5.10008 -4.14653,-9.24661 -9.24661,-9.24661c-5.10008,0 -9.24661,4.14653 -9.24661,9.24661c0,5.10008 4.14653,9.24661 9.24661,9.24661c5.10008,0 9.24661,-4.14653 9.24661,-9.24661z" fill="#ffffff" stroke-width="1"/></g></g></svg>