<svg xmlns="http://www.w3.org/2000/svg" version="1.1" xmlns:xlink="http://www.w3.org/1999/xlink" xmlns:svgjs="http://svgjs.com/svgjs" width="153.25" height="153.25"><svg version="1.1" xmlns="http://www.w3.org/2000/svg" xmlns:xlink="http://www.w3.org/1999/xlink" width="153.25" height="153.25" viewBox="0,0,153.25,153.25"><g transform="translate(-163.375,-58.375)"><g data-paper-data="{&quot;isPaintingLayer&quot;:true}" fill-rule="nonzero" stroke="none" stroke-linecap="butt" stroke-linejoin="miter" stroke-miterlimit="10" stroke-dasharray="" stroke-dashoffset="0" style="mix-blend-mode: normal"><path d="M163.375,135c0,-42.31882 34.30618,-76.625 76.625,-76.625c42.31882,0 76.625,34.30618 76.625,76.625c0,42.31882 -34.30618,76.625 -76.625,76.625c-42.31882,0 -76.625,-34.30618 -76.625,-76.625z" fill="#019115" stroke-width="0"></path><path d="M280,119v32c0,4.4125 -3.5875,8 -8,8h-15.075c-3.025,0 -5.8,-1.7125 -7.15,-4.425l-4,-8c-1.1,-2.1875 -3.3375,-3.575 -5.7875,-3.575c-2.45,0 -4.6875,1.3875 -5.7875,3.575l-4,8c-1.35,2.7125 -4.125,4.425 -7.15,4.425h-15.05c-4.4125,0 -8,-3.5875 -8,-8v-32c0,-4.4125 3.5875,-8 8,-8h64c4.4125,0 8,3.5875 8,8zM220,125c-4.4125,0 -8,3.5875 -8,8c0,4.4125 3.5875,8 8,8c4.4125,0 8,-3.5875 8,-8c0,-4.4125 -3.5875,-8 -8,-8zM268,133c0,-4.4125 -3.5875,-8 -8,-8c-4.4125,0 -8,3.5875 -8,8c0,4.4125 3.5875,8 8,8c4.4125,0 8,-3.5875 8,-8z" fill="#ffffff" stroke-width="1"></path></g></g></svg><style>@media (prefers-color-scheme: light) { :root { filter: contrast(1) brightness(1); } }
@media (prefers-color-scheme: dark) { :root { filter: none; } }
</style></svg>